<svg width="1879" height="156" viewBox="0 0 1879 156" fill="none" xmlns="http://www.w3.org/2000/svg">
<rect x="213.083" y="50.4972" width="204" height="487" rx="102" transform="rotate(53 213.083 50.4972)" fill="#6852ED"/>
<path fill-rule="evenodd" clip-rule="evenodd" d="M1823.5 182C1854.15 182 1879 157.152 1879 126.5C1879 95.8482 1854.15 71 1823.5 71C1792.85 71 1768 95.8482 1768 126.5C1768 157.152 1792.85 182 1823.5 182Z" fill="#6852ED"/>
<path fill-rule="evenodd" clip-rule="evenodd" d="M1682 50C1695.81 50 1707 38.8071 1707 25C1707 11.1929 1695.81 0 1682 0C1668.19 0 1657 11.1929 1657 25C1657 38.8071 1668.19 50 1682 50Z" fill="#BA43FC"/>
</svg>
