<svg width="1894" height="482" viewBox="0 0 1894 482" fill="none" xmlns="http://www.w3.org/2000/svg">
<path fill-rule="evenodd" clip-rule="evenodd" d="M302 295C307.523 295 312 290.523 312 285C312 279.477 307.523 275 302 275C296.477 275 292 279.477 292 285C292 290.523 296.477 295 302 295Z" fill="#6852ED"/>
<path fill-rule="evenodd" clip-rule="evenodd" d="M364 100C377.807 100 389 88.8071 389 75C389 61.1929 377.807 50 364 50C350.193 50 339 61.1929 339 75C339 88.8071 350.193 100 364 100Z" fill="#BA43FC"/>
<path fill-rule="evenodd" clip-rule="evenodd" d="M90.5 250C140.482 250 181 209.482 181 159.5C181 109.518 140.482 69 90.5 69C40.5182 69 0 109.518 0 159.5C0 209.482 40.5182 250 90.5 250Z" fill="#BA43FC"/>
<path fill-rule="evenodd" clip-rule="evenodd" d="M1275.5 87C1285.72 87 1294 78.7173 1294 68.5C1294 58.2827 1285.72 50 1275.5 50C1265.28 50 1257 58.2827 1257 68.5C1257 78.7173 1265.28 87 1275.5 87Z" fill="#BA43FC"/>
<path fill-rule="evenodd" clip-rule="evenodd" d="M1479 395C1501.09 395 1519 377.091 1519 355C1519 332.909 1501.09 315 1479 315C1456.91 315 1439 332.909 1439 355C1439 377.091 1456.91 395 1479 395Z" fill="#6852ED"/>
<path fill-rule="evenodd" clip-rule="evenodd" d="M1894.5 325C1953.87 325 2002 276.871 2002 217.5C2002 158.129 1953.87 110 1894.5 110C1835.13 110 1787 158.129 1787 217.5C1787 276.871 1835.13 325 1894.5 325Z" fill="#BA43FC"/>
<path fill-rule="evenodd" clip-rule="evenodd" d="M1734.01 41.7201C1714.28 23.2744 1702.94 -1.71634 1702.06 -28.6667C1701.17 -55.6277 1710.86 -81.3063 1729.34 -100.984L2096.42 -492.052C2115.46 -512.35 2142.39 -524 2170.27 -524C2196.04 -524 2220.59 -514.31 2239.41 -496.72C2280.12 -458.657 2282.21 -394.644 2244.08 -354.016L1877.01 37.0558C1857.96 57.3537 1831.03 69 1803.15 69C1777.38 69 1752.82 59.3096 1734.01 41.7201" fill="#6852ED"/>
<path fill-rule="evenodd" clip-rule="evenodd" d="M24.0575 896.369C23.1453 868.589 33.1197 842.131 52.1232 821.856L429.752 418.917C449.346 398.004 477.042 386 505.725 386C532.236 386 557.495 395.985 576.857 414.108C618.734 453.326 620.887 519.283 581.661 561.144L204.036 964.086C184.438 985 156.742 997 128.056 997C101.548 997 76.2819 987.015 56.9313 968.892C36.6353 949.886 24.9622 924.137 24.0575 896.369Z" fill="#6852ED"/>
</svg>
