<svg width="1779" height="500" viewBox="0 0 1779 500" fill="none" xmlns="http://www.w3.org/2000/svg">
<path fill-rule="evenodd" clip-rule="evenodd" d="M1058 475C1017.13 475 984 508.131 984 549C984 589.869 1017.13 623 1058 623C1098.87 623 1132 589.869 1132 549C1132 508.131 1098.87 475 1058 475Z" fill="#6852ED"/>
<rect x="34.6296" y="1110.23" width="485" height="1213" rx="242.5" transform="rotate(-136 34.6296 1110.23)" fill="#6852ED"/>
<path fill-rule="evenodd" clip-rule="evenodd" d="M1604 349C1587.43 349 1574 362.431 1574 379C1574 395.569 1587.43 409 1604 409C1620.57 409 1634 395.569 1634 379C1634 362.431 1620.57 349 1604 349Z" fill="#BA43FC"/>
<path fill-rule="evenodd" clip-rule="evenodd" d="M1537 399C1531.48 399 1527 403.477 1527 409C1527 414.523 1531.48 419 1537 419C1542.52 419 1547 414.523 1547 409C1547 403.477 1542.52 399 1537 399Z" fill="#6852ED"/>
<path fill-rule="evenodd" clip-rule="evenodd" d="M1728.5 0C1700.61 0 1678 22.6096 1678 50.5C1678 78.3904 1700.61 101 1728.5 101C1756.39 101 1779 78.3904 1779 50.5C1779 22.6096 1756.39 0 1728.5 0Z" fill="#6852ED"/>
</svg>
