<svg width="40" height="40" viewBox="0 0 40 40" fill="none" xmlns="http://www.w3.org/2000/svg">
<path fill-rule="evenodd" clip-rule="evenodd" d="M31.5298 26.3641C28.9555 30.9061 23.367 32.9297 22.5135 29.6617C20.8426 33.9387 22.9782 37.2431 27.1382 37.4421C21.5955 37.7664 19.1853 33.4084 21.1487 28.7551C24.8647 19.9471 45.6247 19.2561 36.2609 7.57973C41.2809 15.3644 27.6786 18.5857 21.6731 19.1451C13.1053 19.9424 9.06365 25.7214 9.2223 30.9404C9.43111 37.7991 17.8101 40.6851 24.4026 39.3861C29.942 38.2951 34.803 34.9561 37.6898 30.1844C42.7579 21.8067 37.8101 15.2844 31.5298 26.3641Z" fill="url(#paint0_linear_0_4776)"/>
<path fill-rule="evenodd" clip-rule="evenodd" d="M1.31327 13.3166C3.71462 9.77523 7.82378 7.97623 12.7417 7.36356C18.7224 1.21456 27.3177 3.6759 27.9872 6.67523C30.2414 5.51923 29.9387 3.33423 26.4424 2.08156C34.5773 4.42923 29.5085 9.74456 21.2577 9.05223C2.06581 7.44156 -7.10165 21.5722 6.45022 34.2866C2.15869 24.8572 11.897 16.7022 22.7031 16.3862C29.1292 16.1986 40.7831 11.9142 34.658 5.8079C24.3489 -4.46844 6.24717 -0.58077 1.31327 13.3166Z" fill="url(#paint1_linear_0_4776)"/>
<defs>
<linearGradient id="paint0_linear_0_4776" x1="44.5413" y1="32.3105" x2="37.2089" y2="13.8534" gradientUnits="userSpaceOnUse">
<stop stop-color="#6852ED"/>
<stop offset="1" stop-color="#BA43FC"/>
</linearGradient>
<linearGradient id="paint1_linear_0_4776" x1="36.3839" y1="2.28882e-05" x2="-9.15527e-05" y2="2.28882e-05" gradientUnits="userSpaceOnUse">
<stop stop-color="#6852ED"/>
<stop offset="1" stop-color="#BA43FC"/>
</linearGradient>
</defs>
</svg>
